<svg width="15" height="15" viewBox="0 0 15 15" fill="none" xmlns="http://www.w3.org/2000/svg">
<path d="M7.5 1.25C4.05625 1.25 1.25 4.05625 1.25 7.5C1.25 10.9438 4.05625 13.75 7.5 13.75C10.9438 13.75 13.75 10.9438 13.75 7.5C13.75 4.05625 10.9438 1.25 7.5 1.25ZM10 7.96875H7.96875V10C7.96875 10.2563 7.75625 10.4688 7.5 10.4688C7.24375 10.4688 7.03125 10.2563 7.03125 10V7.96875H5C4.74375 7.96875 4.53125 7.75625 4.53125 7.5C4.53125 7.24375 4.74375 7.03125 5 7.03125H7.03125V5C7.03125 4.74375 7.24375 4.53125 7.5 4.53125C7.75625 4.53125 7.96875 4.74375 7.96875 5V7.03125H10C10.2563 7.03125 10.4688 7.24375 10.4688 7.5C10.4688 7.75625 10.2563 7.96875 10 7.96875Z" fill="black"/>
</svg>
