<svg width="40" height="40" viewBox="0 0 40 40" fill="none" xmlns="http://www.w3.org/2000/svg">
<path d="M20.0002 3.33331C10.8002 3.33331 3.3335 10.8 3.3335 20C3.3335 29.2 10.8002 36.6666 20.0002 36.6666C29.2002 36.6666 36.6668 29.2 36.6668 20C36.6668 10.8 29.2002 3.33331 20.0002 3.33331ZM18.2168 28.5833C18.2168 28.75 18.1835 28.9 18.1168 29.0666C17.9835 29.3666 17.7502 29.6166 17.4335 29.75C17.2835 29.8166 17.1168 29.85 16.9502 29.85C16.7835 29.85 16.6335 29.8166 16.4668 29.75C16.3168 29.6833 16.1835 29.6 16.0668 29.4833L11.0002 24.4166C10.5168 23.9333 10.5168 23.1333 11.0002 22.65C11.4835 22.1666 12.2835 22.1666 12.7668 22.65L15.7002 25.5833V11.4166C15.7002 10.7333 16.2668 10.1666 16.9502 10.1666C17.6335 10.1666 18.2002 10.7333 18.2002 11.4166V28.5833H18.2168ZM28.9835 17.3666C28.7335 17.6166 28.4168 17.7333 28.1002 17.7333C27.7835 17.7333 27.4668 17.6166 27.2168 17.3666L24.2835 14.4333V28.6C24.2835 29.2833 23.7168 29.85 23.0335 29.85C22.3502 29.85 21.7835 29.2833 21.7835 28.6V11.4166C21.7835 11.25 21.8168 11.1 21.8835 10.9333C22.0168 10.6333 22.2502 10.3833 22.5668 10.25C22.8668 10.1166 23.2168 10.1166 23.5168 10.25C23.6668 10.3166 23.8002 10.4 23.9168 10.5166L28.9835 15.5833C29.4668 16.0833 29.4668 16.8666 28.9835 17.3666Z" fill="#171717"/>
</svg>
