<svg width="15" height="16" viewBox="0 0 15 16" fill="none" xmlns="http://www.w3.org/2000/svg">
<path d="M7.2002 1.75C3.8942 1.75 1.2002 4.55625 1.2002 8C1.2002 11.4438 3.8942 14.25 7.2002 14.25C10.5062 14.25 13.2002 11.4438 13.2002 8C13.2002 4.55625 10.5062 1.75 7.2002 1.75ZM8.8742 8.33125L6.7562 10.5375C6.6662 10.6312 6.5522 10.675 6.4382 10.675C6.3242 10.675 6.2102 10.6312 6.1202 10.5375C5.9462 10.3562 5.9462 10.0562 6.1202 9.875L7.9202 8L6.1202 6.125C5.9462 5.94375 5.9462 5.64375 6.1202 5.4625C6.2942 5.28125 6.5822 5.28125 6.7562 5.4625L8.8742 7.66875C9.0542 7.85 9.0542 8.15 8.8742 8.33125Z" fill="white"/>
</svg>
