<svg width="40" height="40" viewBox="0 0 40 40" fill="none" xmlns="http://www.w3.org/2000/svg">
<rect width="40" height="40" rx="20" fill="#121212"/>
<mask id="mask0_436_3623" style="mask-type:alpha" maskUnits="userSpaceOnUse" x="0" y="0" width="40" height="40">
<rect width="40" height="40" rx="20" fill="#121212"/>
</mask>
<g mask="url(#mask0_436_3623)">
<g filter="url(#filter0_f_436_3623)">
<circle cx="8.73545" cy="51.7975" r="24.4347" fill="url(#paint0_linear_436_3623)"/>
<circle cx="31.2152" cy="-10.7555" r="24.4347" transform="rotate(-180 31.2152 -10.7555)" fill="url(#paint1_linear_436_3623)"/>
</g>
</g>
<path d="M25.3486 20.7618H22.2705C20.739 20.7618 20 20.0533 20 18.5904V13.4095C20 11.9466 20.7467 11.238 22.2705 11.238H25.3486C26.88 11.238 27.619 11.9466 27.619 13.4095V18.5904C27.619 20.0533 26.8724 20.7618 25.3486 20.7618ZM22.2705 12.3809C21.3029 12.3809 21.1429 12.6399 21.1429 13.4095V18.5904C21.1429 19.3599 21.3029 19.619 22.2705 19.619H25.3486C26.3162 19.619 26.4762 19.3599 26.4762 18.5904V13.4095C26.4762 12.6399 26.3162 12.3809 25.3486 12.3809H22.2705Z" fill="#F4F4F4"/>
<path d="M25.3486 27.6189H22.2705C20.739 27.6189 20 26.9104 20 25.4475V24.0761C20 22.6132 20.7467 21.9047 22.2705 21.9047H25.3486C26.88 21.9047 27.619 22.6132 27.619 24.0761V25.4475C27.619 26.9104 26.8724 27.6189 25.3486 27.6189ZM22.2705 23.0475C21.3029 23.0475 21.1429 23.3066 21.1429 24.0761V25.4475C21.1429 26.217 21.3029 26.4761 22.2705 26.4761H25.3486C26.3162 26.4761 26.4762 26.217 26.4762 25.4475V24.0761C26.4762 23.3066 26.3162 23.0475 25.3486 23.0475H22.2705Z" fill="#F4F4F4"/>
<path d="M16.5864 27.619H13.5083C11.9768 27.619 11.2378 26.9105 11.2378 25.4476V20.2666C11.2378 18.8038 11.9845 18.0952 13.5083 18.0952H16.5864C18.1178 18.0952 18.8568 18.8038 18.8568 20.2666V25.4476C18.8568 26.9105 18.1102 27.619 16.5864 27.619ZM13.5083 19.2381C12.5407 19.2381 12.3807 19.4971 12.3807 20.2666V25.4476C12.3807 26.2171 12.5407 26.4762 13.5083 26.4762H16.5864C17.554 26.4762 17.714 26.2171 17.714 25.4476V20.2666C17.714 19.4971 17.554 19.2381 16.5864 19.2381H13.5083Z" fill="#F4F4F4"/>
<path d="M16.5864 16.9523H13.5083C11.9768 16.9523 11.2378 16.2438 11.2378 14.7809V13.4095C11.2378 11.9466 11.9845 11.238 13.5083 11.238H16.5864C18.1178 11.238 18.8568 11.9466 18.8568 13.4095V14.7809C18.8568 16.2438 18.1102 16.9523 16.5864 16.9523ZM13.5083 12.3809C12.5407 12.3809 12.3807 12.6399 12.3807 13.4095V14.7809C12.3807 15.5504 12.5407 15.8095 13.5083 15.8095H16.5864C17.554 15.8095 17.714 15.5504 17.714 14.7809V13.4095C17.714 12.6399 17.554 12.3809 16.5864 12.3809H13.5083Z" fill="#F4F4F4"/>
<defs>
<filter id="filter0_f_436_3623" x="-22.3992" y="-41.8902" width="84.7491" height="124.822" filterUnits="userSpaceOnUse" color-interpolation-filters="sRGB">
<feFlood flood-opacity="0" result="BackgroundImageFix"/>
<feBlend mode="normal" in="SourceGraphic" in2="BackgroundImageFix" result="shape"/>
<feGaussianBlur stdDeviation="3.35" result="effect1_foregroundBlur_436_3623"/>
</filter>
<linearGradient id="paint0_linear_436_3623" x1="8.73545" y1="27.3628" x2="8.73545" y2="76.2321" gradientUnits="userSpaceOnUse">
<stop stop-color="#FF5C1E" stop-opacity="0.9"/>
<stop offset="0.39" stop-opacity="0"/>
</linearGradient>
<linearGradient id="paint1_linear_436_3623" x1="31.2152" y1="-35.1902" x2="31.2152" y2="13.6792" gradientUnits="userSpaceOnUse">
<stop stop-color="#97CD50" stop-opacity="0.9"/>
<stop offset="0.38" stop-opacity="0"/>
</linearGradient>
</defs>
</svg>
