<svg width="22" height="21" viewBox="0 0 22 21" fill="none" xmlns="http://www.w3.org/2000/svg">
<path d="M10.8971 2.29742C6.22351 2.29742 2.43042 6.09051 2.43042 10.7641C2.43042 15.4378 6.22351 19.2309 10.8971 19.2309C15.5708 19.2309 19.3638 15.4378 19.3638 10.7641C19.3638 6.09051 15.5708 2.29742 10.8971 2.29742ZM15.5792 6.97952L9.04292 13.5158H11.5999C11.947 13.5158 12.2349 13.8037 12.2349 14.1508C12.2349 14.498 11.947 14.7858 11.5999 14.7858H7.51045C7.16331 14.7858 6.87544 14.498 6.87544 14.1508V10.0614C6.87544 9.71427 7.16331 9.4264 7.51045 9.4264C7.85758 9.4264 8.14545 9.71427 8.14545 10.0614V12.6183L14.6818 6.08205C14.8088 5.95504 14.9696 5.89578 15.1305 5.89578C15.2914 5.89578 15.4522 5.95504 15.5792 6.08205C15.8248 6.32758 15.8248 6.73398 15.5792 6.97952Z" fill="white"/>
</svg>
