<svg width="15" height="15" viewBox="0 0 15 15" fill="none" xmlns="http://www.w3.org/2000/svg">
<path d="M9.375 14.2188H5.625C2.23125 14.2188 0.78125 12.7688 0.78125 9.375V5.625C0.78125 2.23125 2.23125 0.78125 5.625 0.78125H6.875C7.13125 0.78125 7.34375 0.99375 7.34375 1.25C7.34375 1.50625 7.13125 1.71875 6.875 1.71875H5.625C2.74375 1.71875 1.71875 2.74375 1.71875 5.625V9.375C1.71875 12.2563 2.74375 13.2812 5.625 13.2812H9.375C12.2563 13.2812 13.2812 12.2563 13.2812 9.375V8.125C13.2812 7.86875 13.4937 7.65625 13.75 7.65625C14.0063 7.65625 14.2188 7.86875 14.2188 8.125V9.375C14.2188 12.7688 12.7688 14.2188 9.375 14.2188Z" fill="#171717"/>
<path d="M5.31258 11.0562C4.93133 11.0562 4.58133 10.9187 4.32508 10.6687C4.01883 10.3625 3.88758 9.91873 3.95633 9.44998L4.22508 7.56873C4.27508 7.20622 4.51258 6.73748 4.76883 6.48123L9.69383 1.55623C10.9376 0.312476 12.2001 0.312476 13.4438 1.55623C14.1251 2.23748 14.4313 2.93123 14.3688 3.62498C14.3126 4.18748 14.0126 4.73748 13.4438 5.29998L8.51883 10.225C8.26258 10.4812 7.79383 10.7187 7.43133 10.7687L5.55008 11.0375C5.46883 11.0562 5.38758 11.0562 5.31258 11.0562ZM10.3563 2.21873L5.43133 7.14373C5.31258 7.26248 5.17508 7.53748 5.15008 7.69998L4.88133 9.58123C4.85633 9.76248 4.89383 9.91248 4.98758 10.0062C5.08133 10.1 5.23133 10.1375 5.41258 10.1125L7.29383 9.84373C7.45633 9.81873 7.73758 9.68123 7.85008 9.56248L12.7751 4.63748C13.1813 4.23123 13.3938 3.86873 13.4251 3.53123C13.4626 3.12498 13.2501 2.69373 12.7751 2.21248C11.7751 1.21248 11.0876 1.49373 10.3563 2.21873Z" fill="#171717"/>
<path d="M12.4062 6.14374C12.3625 6.14374 12.3187 6.13749 12.2812 6.12499C10.6375 5.66249 9.33122 4.35624 8.86872 2.71249C8.79997 2.46249 8.94372 2.20624 9.19372 2.13124C9.44372 2.06249 9.69997 2.20624 9.76872 2.45624C10.1437 3.78749 11.2 4.84374 12.5312 5.21874C12.7812 5.28749 12.925 5.54999 12.8562 5.79999C12.8 6.01249 12.6125 6.14374 12.4062 6.14374Z" fill="#171717"/>
</svg>
