<svg width="16" height="16" viewBox="0 0 16 16" fill="none" xmlns="http://www.w3.org/2000/svg">
<path d="M1.72003 12.6733L1.7067 12.6867C1.5267 12.2933 1.41337 11.8467 1.3667 11.3533C1.41337 11.84 1.54003 12.28 1.72003 12.6733Z" fill="#2C2C2C"/>
<path d="M6.00024 6.91998C6.87653 6.91998 7.58691 6.2096 7.58691 5.33331C7.58691 4.45702 6.87653 3.74664 6.00024 3.74664C5.12395 3.74664 4.41357 4.45702 4.41357 5.33331C4.41357 6.2096 5.12395 6.91998 6.00024 6.91998Z" fill="#2C2C2C"/>
<path d="M10.7935 1.33331H5.20683C2.78016 1.33331 1.3335 2.77998 1.3335 5.20665V10.7933C1.3335 11.52 1.46016 12.1533 1.70683 12.6866C2.28016 13.9533 3.50683 14.6666 5.20683 14.6666H10.7935C13.2202 14.6666 14.6668 13.22 14.6668 10.7933V9.26665V5.20665C14.6668 2.77998 13.2202 1.33331 10.7935 1.33331ZM13.5802 8.33331C13.0602 7.88665 12.2202 7.88665 11.7002 8.33331L8.92683 10.7133C8.40683 11.16 7.56683 11.16 7.04683 10.7133L6.82016 10.5266C6.34683 10.1133 5.5935 10.0733 5.06016 10.4333L2.56683 12.1066C2.42016 11.7333 2.3335 11.3 2.3335 10.7933V5.20665C2.3335 3.32665 3.32683 2.33331 5.20683 2.33331H10.7935C12.6735 2.33331 13.6668 3.32665 13.6668 5.20665V8.40665L13.5802 8.33331Z" fill="#2C2C2C"/>
</svg>
