<svg width="20" height="20" viewBox="0 0 20 20" fill="none" xmlns="http://www.w3.org/2000/svg">
<path d="M14.5835 1.04164C14.9252 1.04164 15.2085 1.32498 15.2085 1.66664L15.2085 7.49998L15.4168 7.49998C16.6668 7.49998 17.0835 8.24998 17.0835 9.16665L17.0835 14.1666C17.0835 15.0833 16.6668 15.8333 15.4168 15.8333L15.2085 15.8333L15.2085 18.3333C15.2085 18.675 14.9252 18.9583 14.5835 18.9583C14.2418 18.9583 13.9585 18.675 13.9585 18.3333L13.9585 15.8333L13.7502 15.8333C12.5002 15.8333 12.0835 15.0833 12.0835 14.1666L12.0835 9.16665C12.0835 8.24998 12.5002 7.49998 13.7502 7.49998L13.9585 7.49998L13.9585 1.66664C13.9585 1.32498 14.2418 1.04164 14.5835 1.04164Z" fill="#97CD50"/>
<path d="M5.4165 1.04164C5.75817 1.04164 6.0415 1.32498 6.0415 1.66664L6.0415 4.16665L6.24984 4.16665C7.49984 4.16665 7.9165 4.91665 7.9165 5.83331L7.9165 10.8333C7.9165 11.75 7.49984 12.5 6.24984 12.5L6.0415 12.5L6.0415 18.3333C6.0415 18.675 5.75817 18.9583 5.4165 18.9583C5.07484 18.9583 4.7915 18.675 4.7915 18.3333L4.7915 12.5L4.58317 12.5C3.33317 12.5 2.9165 11.75 2.9165 10.8333L2.9165 5.83331C2.9165 4.91665 3.33317 4.16665 4.58317 4.16665L4.7915 4.16665L4.7915 1.66664C4.7915 1.32498 5.07484 1.04164 5.4165 1.04164Z" fill="#97CD50"/>
</svg>
