<svg width="17" height="17" viewBox="0 0 17 17" fill="none" xmlns="http://www.w3.org/2000/svg">
<path d="M9.16667 15.6666H6.5C2.88 15.6666 1.33334 14.12 1.33334 10.5V6.49998C1.33334 2.87998 2.88 1.33331 6.5 1.33331H10.5C14.12 1.33331 15.6667 2.87998 15.6667 6.49998V9.16665C15.6667 9.43998 15.44 9.66665 15.1667 9.66665C14.8933 9.66665 14.6667 9.43998 14.6667 9.16665V6.49998C14.6667 3.42665 13.5733 2.33331 10.5 2.33331H6.5C3.42667 2.33331 2.33334 3.42665 2.33334 6.49998V10.5C2.33334 13.5733 3.42667 14.6666 6.5 14.6666H9.16667C9.44 14.6666 9.66667 14.8933 9.66667 15.1666C9.66667 15.44 9.44 15.6666 9.16667 15.6666Z" fill="black"/>
<path d="M5.38673 10.66C5.28006 10.66 5.1734 10.6267 5.08007 10.5533C4.86007 10.3867 4.82008 10.0733 4.98675 9.85334L6.5734 7.79334C6.76673 7.54667 7.04007 7.38667 7.35341 7.34667C7.66674 7.30667 7.9734 7.39334 8.22006 7.58667L9.44008 8.54668C9.48674 8.58668 9.53341 8.58 9.56674 8.58C9.59341 8.58 9.64007 8.56667 9.68007 8.51334L11.2201 6.52667C11.3867 6.30667 11.7001 6.26667 11.9201 6.44001C12.1401 6.60667 12.1801 6.92001 12.0067 7.14001L10.4667 9.12667C10.2734 9.37334 10.0001 9.53334 9.68674 9.56668C9.38007 9.60668 9.06673 9.52001 8.82673 9.32668L7.60674 8.36667C7.56008 8.32667 7.50674 8.32667 7.48007 8.33334C7.45341 8.33334 7.40673 8.34668 7.36673 8.40001L5.78008 10.46C5.68675 10.5933 5.54006 10.66 5.38673 10.66Z" fill="black"/>
<path d="M14.0066 15.6667C13.7733 15.6667 13.4733 15.5933 13.12 15.38L12.9533 15.28C12.9066 15.2533 12.7666 15.2533 12.72 15.28L12.5533 15.38C11.7866 15.84 11.3 15.6467 11.0866 15.4867C10.8666 15.3267 10.5266 14.9267 10.7266 14.0467L10.76 13.9067C10.7733 13.8533 10.7333 13.7267 10.7 13.6867L10.4667 13.4533C10.0733 13.0533 9.91997 12.5867 10.0533 12.1667C10.1866 11.7533 10.58 11.46 11.1333 11.3667L11.3866 11.3267C11.4333 11.3133 11.5266 11.2467 11.5533 11.2L11.74 10.82C12 10.2933 12.4 9.99335 12.84 9.99335C13.28 9.99335 13.68 10.2933 13.94 10.82L14.1266 11.1933C14.1533 11.24 14.2466 11.3067 14.2933 11.32L14.5466 11.36C15.1 11.4533 15.4933 11.7467 15.6266 12.16C15.76 12.5733 15.6133 13.04 15.2133 13.4467L14.98 13.68C14.9466 13.72 14.9066 13.8467 14.92 13.9L14.9533 14.04C15.1533 14.92 14.8133 15.32 14.5933 15.48C14.4733 15.5733 14.28 15.6667 14.0066 15.6667ZM12.8266 11C12.82 11.0067 12.7267 11.0733 12.6333 11.2667L12.4467 11.6467C12.2867 11.9733 11.9066 12.2533 11.5533 12.3133L11.3 12.3533C11.0867 12.3867 11.0133 12.46 11.0066 12.4733C11.0066 12.4867 11.0266 12.5933 11.18 12.7467L11.4133 12.98C11.6866 13.26 11.8266 13.74 11.74 14.12L11.7066 14.26C11.6466 14.52 11.6733 14.6333 11.6866 14.6733C11.7066 14.66 11.82 14.6467 12.04 14.5133L12.2066 14.4133C12.5733 14.1933 13.1 14.1933 13.4667 14.4133L13.6333 14.5133C13.9067 14.68 14.02 14.66 14.0266 14.66C14 14.66 14.0333 14.5267 13.9733 14.26L13.94 14.12C13.8533 13.7333 13.9933 13.26 14.2666 12.98L14.5 12.7467C14.6533 12.5933 14.6733 12.4867 14.6733 12.4667C14.6667 12.4533 14.5933 12.3867 14.38 12.3467L14.1266 12.3067C13.7666 12.2467 13.3933 11.9667 13.2333 11.64L13.0466 11.2667C12.94 11.0667 12.8466 11.0067 12.8266 11Z" fill="black"/>
</svg>
