<svg width="17" height="17" viewBox="0 0 17 17" fill="none" xmlns="http://www.w3.org/2000/svg">
<path d="M15.1667 15.6667H1.83334C1.56 15.6667 1.33334 15.44 1.33334 15.1667C1.33334 14.8934 1.56 14.6667 1.83334 14.6667H15.1667C15.44 14.6667 15.6667 14.8934 15.6667 15.1667C15.6667 15.44 15.44 15.6667 15.1667 15.6667Z" fill="black"/>
<path d="M10 15.6666H7C6.72667 15.6666 6.5 15.44 6.5 15.1666V3.16665C6.5 2.01998 7.13333 1.33331 8.2 1.33331H8.8C9.86667 1.33331 10.5 2.01998 10.5 3.16665V15.1666C10.5 15.44 10.2733 15.6666 10 15.6666ZM7.5 14.6666H9.5V3.16665C9.5 2.39998 9.14 2.33331 8.8 2.33331H8.2C7.86 2.33331 7.5 2.39998 7.5 3.16665V14.6666Z" fill="black"/>
<path d="M5.16667 15.6666H2.5C2.22667 15.6666 2 15.44 2 15.1666V7.16665C2 6.01998 2.58667 5.33331 3.56667 5.33331H4.1C5.08 5.33331 5.66667 6.01998 5.66667 7.16665V15.1666C5.66667 15.44 5.44 15.6666 5.16667 15.6666ZM3 14.6666H4.66667V7.16665C4.66667 6.33331 4.3 6.33331 4.1 6.33331H3.56667C3.36667 6.33331 3 6.33331 3 7.16665V14.6666Z" fill="black"/>
<path d="M14.5 15.6667H11.8333C11.56 15.6667 11.3333 15.44 11.3333 15.1667V10.5C11.3333 9.35335 11.92 8.66669 12.9 8.66669H13.4333C14.4133 8.66669 15 9.35335 15 10.5V15.1667C15 15.44 14.7733 15.6667 14.5 15.6667ZM12.3333 14.6667H14V10.5C14 9.66669 13.6333 9.66669 13.4333 9.66669H12.9C12.7 9.66669 12.3333 9.66669 12.3333 10.5V14.6667Z" fill="black"/>
</svg>
