<svg width="17" height="17" viewBox="0 0 17 17" fill="none" xmlns="http://www.w3.org/2000/svg">
<path d="M10.5 15.6666H6.5C2.88 15.6666 1.33334 14.12 1.33334 10.5V6.49998C1.33334 2.87998 2.88 1.33331 6.5 1.33331H10.5C14.12 1.33331 15.6667 2.87998 15.6667 6.49998V10.5C15.6667 14.12 14.12 15.6666 10.5 15.6666ZM6.5 2.33331C3.42667 2.33331 2.33334 3.42665 2.33334 6.49998V10.5C2.33334 13.5733 3.42667 14.6666 6.5 14.6666H10.5C13.5733 14.6666 14.6667 13.5733 14.6667 10.5V6.49998C14.6667 3.42665 13.5733 2.33331 10.5 2.33331H6.5Z" fill="black"/>
<path d="M11.1667 13.6666H5.83334C4.22 13.6666 3.33334 12.78 3.33334 11.1666V5.83331C3.33334 4.21998 4.22 3.33331 5.83334 3.33331H11.1667C12.78 3.33331 13.6667 4.21998 13.6667 5.83331V11.1666C13.6667 12.78 12.78 13.6666 11.1667 13.6666ZM5.83334 4.33331C4.78 4.33331 4.33334 4.77998 4.33334 5.83331V11.1666C4.33334 12.22 4.78 12.6666 5.83334 12.6666H11.1667C12.22 12.6666 12.6667 12.22 12.6667 11.1666V5.83331C12.6667 4.77998 12.22 4.33331 11.1667 4.33331H5.83334Z" fill="black"/>
<path d="M5.48667 10.6666H3.83334C3.56 10.6666 3.33334 10.44 3.33334 10.1666C3.33334 9.89331 3.56 9.66665 3.83334 9.66665H5.48667C6.13333 9.66665 6.65333 9.13998 6.65333 8.49998C6.65333 7.85998 6.12667 7.33331 5.48667 7.33331H3.83334C3.56 7.33331 3.33334 7.10665 3.33334 6.83331C3.33334 6.55998 3.56 6.33331 3.83334 6.33331H5.48667C6.68 6.33331 7.65333 7.30665 7.65333 8.49998C7.65333 9.69331 6.68667 10.6666 5.48667 10.6666Z" fill="black"/>
<path d="M13.1667 7.65997H11.1667C10.8933 7.65997 10.6667 7.43331 10.6667 7.15997C10.6667 6.88664 10.8933 6.65997 11.1667 6.65997H13.1667C13.44 6.65997 13.6667 6.88664 13.6667 7.15997C13.6667 7.43331 13.44 7.65997 13.1667 7.65997Z" fill="black"/>
<path d="M13.1667 10.3333H11.1667C10.8933 10.3333 10.6667 10.1066 10.6667 9.83331C10.6667 9.55998 10.8933 9.33331 11.1667 9.33331H13.1667C13.44 9.33331 13.6667 9.55998 13.6667 9.83331C13.6667 10.1066 13.44 10.3333 13.1667 10.3333Z" fill="black"/>
<path d="M5.33333 9.16664C5.24666 9.16664 5.15999 9.14663 5.07999 9.1133C4.99999 9.07996 4.92666 9.03332 4.85999 8.97332C4.73333 8.84666 4.66666 8.67997 4.66666 8.49997C4.66666 8.32664 4.73999 8.15329 4.85999 8.02663C5.04666 7.84663 5.34 7.77999 5.58667 7.88665C5.67333 7.91999 5.74667 7.96663 5.80667 8.02663C5.92667 8.15329 6 8.32664 6 8.49997C6 8.67997 5.93334 8.84666 5.80667 8.97332C5.74 9.03332 5.66667 9.07996 5.58667 9.1133C5.50667 9.14663 5.42 9.16664 5.33333 9.16664Z" fill="black"/>
</svg>
