<svg width="17" height="17" viewBox="0 0 17 17" fill="none" xmlns="http://www.w3.org/2000/svg">
<path d="M7.53985 15.64C6.81985 15.64 6.09318 15.4333 5.53318 15.0133L2.67985 12.88C1.92652 12.32 1.33984 11.14 1.33984 10.1933V5.25332C1.33984 4.23332 2.08652 3.14664 3.04652 2.78664L6.36652 1.53998C7.02652 1.29331 8.05985 1.29331 8.71985 1.53998L12.0332 2.78664C12.8132 3.07998 13.4732 3.85998 13.6865 4.72665C13.7198 4.87331 13.6865 5.03332 13.5932 5.15332C13.4998 5.27332 13.3532 5.34664 13.1999 5.34664L7.92651 5.35331C7.07985 5.40665 6.87318 5.54666 6.87318 6.77999V10.4C6.87318 11.6733 7.03985 11.8333 8.33318 11.8333H12.2798C12.4865 11.8333 12.6732 11.96 12.7465 12.1533C12.8198 12.3467 12.7665 12.5666 12.6132 12.7066C12.5398 12.7666 12.4798 12.8267 12.4065 12.88L9.55318 15.02C8.97985 15.4333 8.25985 15.64 7.53985 15.64ZM7.53985 2.35999C7.23985 2.35999 6.93319 2.39999 6.71319 2.48666L3.39318 3.73332C2.83318 3.94665 2.33318 4.65998 2.33318 5.26664V10.2066C2.33318 10.8333 2.77318 11.7133 3.27318 12.0867L6.12652 14.22C6.89318 14.7866 8.17985 14.7866 8.94651 14.22L10.7932 12.84H8.32652C6.48652 12.84 5.86652 12.2266 5.86652 10.4066V6.78664C5.86652 5.36664 6.20651 4.46665 7.89318 4.35999L8.32652 4.35331H12.4265C12.2265 4.06665 11.9599 3.83999 11.6799 3.73332L8.36652 2.48666C8.13985 2.39999 7.83985 2.35999 7.53985 2.35999Z" fill="black"/>
<path d="M15.1665 8.47998H6.36654C6.09321 8.47998 5.86654 8.25331 5.86654 7.97998C5.86654 7.70665 6.09321 7.47998 6.36654 7.47998H15.1665C15.4399 7.47998 15.6665 7.70665 15.6665 7.97998C15.6665 8.25331 15.4399 8.47998 15.1665 8.47998Z" fill="black"/>
<path d="M13.2065 12.8333H8.32654C6.48654 12.8333 5.86654 12.22 5.86654 10.4V6.77997C5.86654 5.35997 6.20653 4.45996 7.8932 4.35329L8.32654 4.34662H13.2065C15.0465 4.34662 15.6665 4.95997 15.6665 6.77997V10.48C15.6532 12.24 15.0332 12.8333 13.2065 12.8333ZM8.32654 5.34662L7.91987 5.35329C7.07321 5.40663 6.86654 5.54663 6.86654 6.77997V10.4C6.86654 11.6733 7.03321 11.8333 8.32654 11.8333H13.2065C14.4799 11.8333 14.6532 11.6666 14.6665 10.48V6.78662C14.6665 5.51329 14.4999 5.35329 13.2065 5.35329H8.32654V5.34662Z" fill="black"/>
<path d="M8.93337 11.1733H8.04004C7.76671 11.1733 7.54004 10.9467 7.54004 10.6733C7.54004 10.4 7.76671 10.1733 8.04004 10.1733H8.93337C9.2067 10.1733 9.43337 10.4 9.43337 10.6733C9.43337 10.9467 9.21337 11.1733 8.93337 11.1733Z" fill="black"/>
<path d="M12.5133 11.1733H10.3333C10.06 11.1733 9.83334 10.9467 9.83334 10.6733C9.83334 10.4 10.06 10.1733 10.3333 10.1733H12.5133C12.7867 10.1733 13.0133 10.4 13.0133 10.6733C13.0133 10.9467 12.7933 11.1733 12.5133 11.1733Z" fill="black"/>
</svg>
