<svg width="17" height="17" viewBox="0 0 17 17" fill="none" xmlns="http://www.w3.org/2000/svg">
<path d="M11.8333 15H11.1667C10.8933 15 10.6667 14.7733 10.6667 14.5C10.6667 14.2267 10.8933 14 11.1667 14H11.8333C13.5533 14 14.6667 12.8867 14.6667 11.1667V5.83333C14.6667 4.11333 13.5533 3 11.8333 3H5.16667C3.44667 3 2.33334 4.11333 2.33334 5.83333V6.5C2.33334 6.77333 2.10667 7 1.83334 7C1.56 7 1.33334 6.77333 1.33334 6.5V5.83333C1.33334 3.54 2.87334 2 5.16667 2H11.8333C14.1267 2 15.6667 3.54 15.6667 5.83333V11.1667C15.6667 13.46 14.1267 15 11.8333 15Z" fill="black"/>
<path d="M8.69345 14.54C8.44678 14.54 8.23345 14.3533 8.20012 14.1067C7.83345 11.2533 5.75345 9.16667 2.89345 8.8C2.62012 8.76667 2.42679 8.51332 2.46012 8.23998C2.49345 7.96665 2.74678 7.77332 3.02012 7.80665C6.34012 8.23332 8.76678 10.6533 9.18678 13.9733C9.22012 14.2467 9.02679 14.5 8.75345 14.5333C8.74012 14.54 8.71345 14.54 8.69345 14.54Z" fill="black"/>
<path d="M6.45324 15.2533C6.20657 15.2533 5.99324 15.0666 5.95991 14.82C5.69991 12.7866 4.21325 11.3 2.17991 11.04C1.90658 11.0066 1.71324 10.7533 1.74657 10.48C1.77991 10.2066 2.03325 10.0133 2.30658 10.0466C4.80658 10.3666 6.62657 12.1933 6.94658 14.6866C6.97991 14.96 6.78658 15.2133 6.51325 15.2466C6.49325 15.2533 6.47324 15.2533 6.45324 15.2533Z" fill="black"/>
<path d="M3.92015 15.68C3.67348 15.68 3.46015 15.4933 3.42681 15.2466C3.31348 14.3466 2.65348 13.6866 1.75348 13.5733C1.48015 13.54 1.28681 13.2866 1.32014 13.0133C1.35348 12.74 1.60682 12.5466 1.88015 12.58C3.22682 12.7533 4.24682 13.7733 4.42015 15.12C4.45348 15.3933 4.26014 15.6466 3.98681 15.68C3.96681 15.68 3.94682 15.68 3.92015 15.68Z" fill="black"/>
</svg>
