<svg width="17" height="17" viewBox="0 0 17 17" fill="none" xmlns="http://www.w3.org/2000/svg">
<path d="M8.5 15.6734C7.77334 15.6734 7.05334 15.46 6.48667 15.04L3.62 12.9C2.86 12.3334 2.26667 11.1467 2.26667 10.2067V5.24669C2.26667 4.22002 3.02 3.12669 3.98667 2.76669L7.31334 1.52002C7.97334 1.27336 9.01334 1.27336 9.67334 1.52002L13 2.76669C13.9667 3.12669 14.72 4.22002 14.72 5.24669V10.2C14.72 11.1467 14.1267 12.3267 13.3667 12.8934L10.5 15.0334C9.94667 15.46 9.22667 15.6734 8.5 15.6734ZM7.66667 2.46002L4.34 3.70669C3.77334 3.92002 3.27334 4.64002 3.27334 5.25336V10.2067C3.27334 10.84 3.72 11.7267 4.22 12.1L7.08667 14.24C7.85334 14.8134 9.14667 14.8134 9.92 14.24L12.7867 12.1C13.2933 11.72 13.7333 10.84 13.7333 10.2067V5.24669C13.7333 4.64002 13.2333 3.92002 12.6667 3.70002L9.34 2.45336C8.88667 2.29336 8.11334 2.29336 7.66667 2.46002Z" fill="black"/>
<path d="M7.60667 9.98664C7.48 9.98664 7.35334 9.93998 7.25334 9.83998L6.18 8.76664C5.98667 8.57331 5.98667 8.25331 6.18 8.05998C6.37334 7.86664 6.69334 7.86664 6.88667 8.05998L7.60667 8.77998L10.12 6.26664C10.3133 6.07331 10.6333 6.07331 10.8267 6.26664C11.02 6.45998 11.02 6.77998 10.8267 6.97331L7.96 9.83998C7.86 9.93998 7.73334 9.98664 7.60667 9.98664Z" fill="black"/>
</svg>
