<svg width="15" height="16" viewBox="0 0 15 16" fill="none" xmlns="http://www.w3.org/2000/svg">
<path d="M6.875 13.4688C3.5125 13.4688 0.78125 10.7375 0.78125 7.375C0.78125 4.0125 3.5125 1.28125 6.875 1.28125C10.2375 1.28125 12.9688 4.0125 12.9688 7.375C12.9688 10.7375 10.2375 13.4688 6.875 13.4688ZM6.875 2.21875C4.03125 2.21875 1.71875 4.53125 1.71875 7.375C1.71875 10.2188 4.03125 12.5312 6.875 12.5312C9.71875 12.5312 12.0312 10.2188 12.0312 7.375C12.0312 4.53125 9.71875 2.21875 6.875 2.21875Z" fill="#A4A8A8"/>
<path d="M12.6 14.7437C12.55 14.7437 12.5 14.7375 12.4563 14.7312C12.1625 14.6937 11.6313 14.4937 11.3313 13.6C11.175 13.1312 11.2313 12.6625 11.4875 12.3062C11.7438 11.95 12.175 11.75 12.6688 11.75C13.3063 11.75 13.8063 11.9938 14.0313 12.425C14.2563 12.8562 14.1938 13.4062 13.8375 13.9375C13.3938 14.6062 12.9125 14.7437 12.6 14.7437ZM12.225 13.3062C12.3313 13.6312 12.4813 13.7937 12.5813 13.8062C12.6813 13.8187 12.8688 13.7 13.0625 13.4187C13.2438 13.15 13.2563 12.9562 13.2125 12.8687C13.1688 12.7812 12.9938 12.6875 12.6688 12.6875C12.475 12.6875 12.3313 12.75 12.25 12.8562C12.175 12.9625 12.1625 13.125 12.225 13.3062Z" fill="#A4A8A8"/>
</svg>
