<svg width="19" height="19" viewBox="0 0 19 19" fill="none" xmlns="http://www.w3.org/2000/svg">
<path d="M17 5.9375H12.5C12.1925 5.9375 11.9375 5.6825 11.9375 5.375C11.9375 5.0675 12.1925 4.8125 12.5 4.8125H17C17.3075 4.8125 17.5625 5.0675 17.5625 5.375C17.5625 5.6825 17.3075 5.9375 17 5.9375Z" fill="white"/>
<path d="M5 5.9375H2C1.6925 5.9375 1.4375 5.6825 1.4375 5.375C1.4375 5.0675 1.6925 4.8125 2 4.8125H5C5.3075 4.8125 5.5625 5.0675 5.5625 5.375C5.5625 5.6825 5.3075 5.9375 5 5.9375Z" fill="white"/>
<path d="M8 8.5625C6.245 8.5625 4.8125 7.13 4.8125 5.375C4.8125 3.62 6.245 2.1875 8 2.1875C9.755 2.1875 11.1875 3.62 11.1875 5.375C11.1875 7.13 9.755 8.5625 8 8.5625ZM8 3.3125C6.86 3.3125 5.9375 4.235 5.9375 5.375C5.9375 6.515 6.86 7.4375 8 7.4375C9.14 7.4375 10.0625 6.515 10.0625 5.375C10.0625 4.235 9.14 3.3125 8 3.3125Z" fill="white"/>
<path d="M17 14.1875H14C13.6925 14.1875 13.4375 13.9325 13.4375 13.625C13.4375 13.3175 13.6925 13.0625 14 13.0625H17C17.3075 13.0625 17.5625 13.3175 17.5625 13.625C17.5625 13.9325 17.3075 14.1875 17 14.1875Z" fill="white"/>
<path d="M6.5 14.1875H2C1.6925 14.1875 1.4375 13.9325 1.4375 13.625C1.4375 13.3175 1.6925 13.0625 2 13.0625H6.5C6.8075 13.0625 7.0625 13.3175 7.0625 13.625C7.0625 13.9325 6.8075 14.1875 6.5 14.1875Z" fill="white"/>
<path d="M11 16.8125C9.245 16.8125 7.8125 15.38 7.8125 13.625C7.8125 11.87 9.245 10.4375 11 10.4375C12.755 10.4375 14.1875 11.87 14.1875 13.625C14.1875 15.38 12.755 16.8125 11 16.8125ZM11 11.5625C9.86 11.5625 8.9375 12.485 8.9375 13.625C8.9375 14.765 9.86 15.6875 11 15.6875C12.14 15.6875 13.0625 14.765 13.0625 13.625C13.0625 12.485 12.14 11.5625 11 11.5625Z" fill="white"/>
</svg>
