<svg width="17" height="17" viewBox="0 0 17 17" fill="none" xmlns="http://www.w3.org/2000/svg">
<path d="M8.5 15.6666C4.54667 15.6666 1.33334 12.4533 1.33334 8.49998C1.33334 4.54665 4.54667 1.33331 8.5 1.33331C12.4533 1.33331 15.6667 4.54665 15.6667 8.49998C15.6667 12.4533 12.4533 15.6666 8.5 15.6666ZM8.5 2.33331C5.1 2.33331 2.33334 5.09998 2.33334 8.49998C2.33334 11.9 5.1 14.6666 8.5 14.6666C11.9 14.6666 14.6667 11.9 14.6667 8.49998C14.6667 5.09998 11.9 2.33331 8.5 2.33331Z" fill="black"/>
<path d="M8.49991 12.6667C8.35991 12.6667 8.22658 12.6467 8.11324 12.6067C6.67991 12.12 4.40658 10.3733 4.40658 7.77334C4.40658 6.38667 5.52658 5.26001 6.90658 5.26001C7.50658 5.26001 8.05991 5.46667 8.50657 5.84001C8.95324 5.46667 9.51324 5.26001 10.0999 5.26001C11.4799 5.26001 12.5999 6.38667 12.5999 7.77334C12.5999 10.3667 10.3266 12.1133 8.88658 12.6067C8.77325 12.6467 8.63324 12.6667 8.49991 12.6667ZM6.89992 6.26666C6.07325 6.26666 5.39992 6.94668 5.39992 7.78001C5.39992 10.1067 7.64657 11.4 8.43324 11.6667C8.45991 11.6733 8.52658 11.6733 8.55325 11.6667C9.33991 11.4 11.5866 10.1067 11.5866 7.78001C11.5866 6.94668 10.9132 6.26666 10.0866 6.26666C9.61991 6.26666 9.17324 6.49333 8.89324 6.87333C8.70658 7.12667 8.27991 7.12667 8.09324 6.87333C7.81324 6.48667 7.37992 6.26666 6.89992 6.26666Z" fill="black"/>
</svg>
