<svg width="87" height="49" viewBox="0 0 87 49" fill="none" xmlns="http://www.w3.org/2000/svg">
<path d="M11.2713 15.6792C6.69411 9.04562 11.4426 0 19.5021 0L71.3559 0C79.6402 0 86.3559 6.71573 86.3559 15V33.2603C86.3559 41.5445 79.6402 48.2603 71.3559 48.2603H52.1254C40.621 48.2603 29.8513 42.6067 23.3176 33.1376L11.2713 15.6792Z" fill="url(#paint0_linear_429_3558)"/>
<path d="M66.5774 8.17035C66.9245 8.17035 67.2124 8.45821 67.2124 8.80535L67.2124 14.732L67.424 14.732C68.694 14.732 69.1174 15.4941 69.1174 16.4254L69.1174 21.5054C69.1174 22.4368 68.694 23.1988 67.424 23.1988L67.2124 23.1988L67.2124 25.7388C67.2124 26.0859 66.9245 26.3738 66.5774 26.3738C66.2302 26.3738 65.9424 26.0859 65.9424 25.7388L65.9424 23.1988L65.7307 23.1988C64.4607 23.1988 64.0374 22.4368 64.0374 21.5054L64.0374 16.4254C64.0374 15.4941 64.4607 14.732 65.7307 14.732L65.9424 14.732L65.9424 8.80535C65.9424 8.45821 66.2302 8.17035 66.5774 8.17035Z" fill="#A4A8A8"/>
<path d="M57.2639 8.17035C57.611 8.17035 57.8989 8.45821 57.8989 8.80535L57.8989 11.3454L58.1106 11.3454C59.3806 11.3454 59.8039 12.1074 59.8039 13.0387L59.8039 18.1187C59.8039 19.0501 59.3806 19.8121 58.1106 19.8121L57.8989 19.8121L57.8989 25.7388C57.8989 26.0859 57.611 26.3738 57.2639 26.3738C56.9168 26.3738 56.6289 26.0859 56.6289 25.7388L56.6289 19.8121L56.4172 19.8121C55.1472 19.8121 54.7239 19.0501 54.7239 18.1187L54.7239 13.0387C54.7239 12.1074 55.1472 11.3454 56.4172 11.3454L56.6289 11.3454L56.6289 8.80535C56.6289 8.45821 56.9168 8.17035 57.2639 8.17035Z" fill="#A4A8A8"/>
<path d="M53.2967 39.9882V34.9042H51.3327V34.2282H55.9727V34.9042H54.0087V39.9882H53.2967ZM56.2111 39.9882V35.6682H56.8471V36.7122L56.7431 36.5762C56.7938 36.4428 56.8591 36.3202 56.9391 36.2082C57.0218 36.0962 57.1138 36.0042 57.2151 35.9322C57.3271 35.8415 57.4538 35.7722 57.5951 35.7242C57.7365 35.6762 57.8805 35.6482 58.0271 35.6402C58.1738 35.6295 58.3111 35.6388 58.4391 35.6682V36.3362C58.2898 36.2962 58.1258 36.2855 57.9471 36.3042C57.7685 36.3228 57.6031 36.3882 57.4511 36.5002C57.3125 36.5988 57.2045 36.7188 57.1271 36.8602C57.0525 37.0015 57.0005 37.1548 56.9711 37.3202C56.9418 37.4828 56.9271 37.6495 56.9271 37.8202V39.9882H56.2111ZM60.2829 40.1082C59.9602 40.1082 59.6895 40.0495 59.4709 39.9322C59.2549 39.8122 59.0909 39.6548 58.9789 39.4602C58.8695 39.2655 58.8149 39.0522 58.8149 38.8202C58.8149 38.5935 58.8575 38.3975 58.9429 38.2322C59.0309 38.0642 59.1535 37.9255 59.3109 37.8162C59.4682 37.7042 59.6562 37.6162 59.8749 37.5522C60.0802 37.4962 60.3095 37.4482 60.5629 37.4082C60.8189 37.3655 61.0775 37.3268 61.3389 37.2922C61.6002 37.2575 61.8442 37.2242 62.0709 37.1922L61.8149 37.3402C61.8229 36.9562 61.7455 36.6722 61.5829 36.4882C61.4229 36.3042 61.1455 36.2122 60.7509 36.2122C60.4895 36.2122 60.2602 36.2722 60.0629 36.3922C59.8682 36.5095 59.7309 36.7015 59.6509 36.9682L58.9749 36.7642C59.0789 36.3855 59.2802 36.0882 59.5789 35.8722C59.8775 35.6562 60.2709 35.5482 60.7589 35.5482C61.1509 35.5482 61.4869 35.6188 61.7669 35.7602C62.0495 35.8988 62.2522 36.1095 62.3749 36.3922C62.4362 36.5255 62.4749 36.6708 62.4909 36.8282C62.5069 36.9828 62.5149 37.1455 62.5149 37.3162V39.9882H61.8829V38.9522L62.0309 39.0482C61.8682 39.3975 61.6402 39.6615 61.3469 39.8402C61.0562 40.0188 60.7015 40.1082 60.2829 40.1082ZM60.3909 39.5122C60.6469 39.5122 60.8682 39.4668 61.0549 39.3762C61.2442 39.2828 61.3962 39.1615 61.5109 39.0122C61.6255 38.8602 61.7002 38.6948 61.7349 38.5162C61.7749 38.3828 61.7962 38.2348 61.7989 38.0722C61.8042 37.9068 61.8069 37.7802 61.8069 37.6922L62.0549 37.8002C61.8229 37.8322 61.5949 37.8628 61.3709 37.8922C61.1469 37.9215 60.9349 37.9535 60.7349 37.9882C60.5349 38.0202 60.3549 38.0588 60.1949 38.1042C60.0775 38.1415 59.9669 38.1895 59.8629 38.2482C59.7615 38.3068 59.6789 38.3828 59.6149 38.4762C59.5535 38.5668 59.5229 38.6802 59.5229 38.8162C59.5229 38.9335 59.5522 39.0455 59.6109 39.1522C59.6722 39.2588 59.7655 39.3455 59.8909 39.4122C60.0189 39.4788 60.1855 39.5122 60.3909 39.5122ZM65.2509 40.1082C64.8482 40.1082 64.5029 40.0082 64.2149 39.8082C63.9269 39.6055 63.7042 39.3322 63.5469 38.9882C63.3922 38.6442 63.3149 38.2562 63.3149 37.8242C63.3149 37.3922 63.3922 37.0042 63.5469 36.6602C63.7042 36.3162 63.9269 36.0455 64.2149 35.8482C64.5029 35.6482 64.8469 35.5482 65.2469 35.5482C65.6549 35.5482 65.9975 35.6468 66.2749 35.8442C66.5522 36.0415 66.7615 36.3122 66.9029 36.6562C67.0469 37.0002 67.1189 37.3895 67.1189 37.8242C67.1189 38.2535 67.0469 38.6415 66.9029 38.9882C66.7615 39.3322 66.5522 39.6055 66.2749 39.8082C65.9975 40.0082 65.6562 40.1082 65.2509 40.1082ZM65.3389 39.4562C65.6295 39.4562 65.8682 39.3868 66.0549 39.2482C66.2415 39.1068 66.3789 38.9135 66.4669 38.6682C66.5575 38.4202 66.6029 38.1388 66.6029 37.8242C66.6029 37.5042 66.5575 37.2228 66.4669 36.9802C66.3789 36.7348 66.2429 36.5442 66.0589 36.4082C65.8749 36.2695 65.6415 36.2002 65.3589 36.2002C65.0655 36.2002 64.8229 36.2722 64.6309 36.4162C64.4415 36.5602 64.3002 36.7548 64.2069 37.0002C64.1162 37.2455 64.0709 37.5202 64.0709 37.8242C64.0709 38.1308 64.1175 38.4082 64.2109 38.6562C64.3042 38.9015 64.4442 39.0962 64.6309 39.2402C64.8202 39.3842 65.0562 39.4562 65.3389 39.4562ZM66.6029 39.9882V36.8082H66.5229V34.2282H67.2389V39.9882H66.6029ZM70.2316 40.1082C69.8076 40.1082 69.4369 40.0148 69.1196 39.8282C68.8049 39.6388 68.5596 39.3762 68.3836 39.0402C68.2076 38.7015 68.1196 38.3068 68.1196 37.8562C68.1196 37.3842 68.2062 36.9762 68.3796 36.6322C68.5529 36.2855 68.7942 36.0188 69.1036 35.8322C69.4156 35.6428 69.7809 35.5482 70.1996 35.5482C70.6342 35.5482 71.0036 35.6482 71.3076 35.8482C71.6142 36.0482 71.8436 36.3335 71.9956 36.7042C72.1502 37.0748 72.2169 37.5162 72.1956 38.0282H71.4756V37.7722C71.4676 37.2415 71.3596 36.8455 71.1516 36.5842C70.9436 36.3202 70.6342 36.1882 70.2236 36.1882C69.7836 36.1882 69.4489 36.3295 69.2196 36.6122C68.9902 36.8948 68.8756 37.3002 68.8756 37.8282C68.8756 38.3375 68.9902 38.7322 69.2196 39.0122C69.4489 39.2922 69.7756 39.4322 70.1996 39.4322C70.4849 39.4322 70.7329 39.3668 70.9436 39.2362C71.1542 39.1055 71.3196 38.9175 71.4396 38.6722L72.1236 38.9082C71.9556 39.2895 71.7022 39.5855 71.3636 39.7962C71.0276 40.0042 70.6502 40.1082 70.2316 40.1082ZM68.6356 38.0282V37.4562H71.8276V38.0282H68.6356Z" fill="#A4A8A8"/>
<defs>
<linearGradient id="paint0_linear_429_3558" x1="30.1708" y1="11.6841" x2="29.4088" y2="43.6882" gradientUnits="userSpaceOnUse">
<stop stop-color="white"/>
<stop offset="1" stop-color="#DFDFDF"/>
</linearGradient>
</defs>
</svg>
