<svg width="24" height="24" viewBox="0 0 24 24" fill="none" xmlns="http://www.w3.org/2000/svg">
<rect width="24" height="24" rx="12" fill="#DFDFDF"/>
<path d="M13.4232 9.22918C13.3124 9.22918 13.2015 9.18835 13.114 9.10085L11.9299 7.91668L10.7457 9.10085C10.5765 9.27001 10.2965 9.27001 10.1274 9.10085C9.9582 8.93168 9.9582 8.65168 10.1274 8.48251L11.6207 6.98918C11.7899 6.82001 12.0699 6.82001 12.239 6.98918L13.7324 8.48251C13.9015 8.65168 13.9015 8.93168 13.7324 9.10085C13.6449 9.18835 13.534 9.22918 13.4232 9.22918Z" fill="#2C2C2C"/>
<path d="M11.9302 13.7092C11.691 13.7092 11.4927 13.5108 11.4927 13.2717V7.33917C11.4927 7.10001 11.691 6.90167 11.9302 6.90167C12.1693 6.90167 12.3677 7.10001 12.3677 7.33917V13.2717C12.3677 13.5167 12.1693 13.7092 11.9302 13.7092Z" fill="#2C2C2C"/>
<path d="M12.0002 17.1042C8.996 17.1042 6.896 15.0042 6.896 12C6.896 11.7608 7.09433 11.5625 7.3335 11.5625C7.57266 11.5625 7.771 11.7608 7.771 12C7.771 14.4908 9.50933 16.2292 12.0002 16.2292C14.491 16.2292 16.2293 14.4908 16.2293 12C16.2293 11.7608 16.4277 11.5625 16.6668 11.5625C16.906 11.5625 17.1043 11.7608 17.1043 12C17.1043 15.0042 15.0043 17.1042 12.0002 17.1042Z" fill="#2C2C2C"/>
</svg>
