<svg width="16" height="16" viewBox="0 0 16 16" fill="none" xmlns="http://www.w3.org/2000/svg">
<path d="M10.7935 1.33331H5.20683C2.78016 1.33331 1.3335 2.77998 1.3335 5.20665V10.7866C1.3335 13.22 2.78016 14.6666 5.20683 14.6666H10.7868C13.2135 14.6666 14.6602 13.22 14.6602 10.7933V5.20665C14.6668 2.77998 13.2202 1.33331 10.7935 1.33331ZM5.64683 5.98665L7.64683 3.98665C7.6935 3.93998 7.74683 3.90665 7.80683 3.87998C7.92683 3.82665 8.06683 3.82665 8.18683 3.87998C8.24683 3.90665 8.30016 3.93998 8.34683 3.98665L10.3468 5.98665C10.5402 6.17998 10.5402 6.49998 10.3468 6.69331C10.2468 6.79331 10.1202 6.83998 9.9935 6.83998C9.86683 6.83998 9.74016 6.79331 9.64016 6.69331L8.4935 5.54665V9.67331C8.4935 9.94665 8.26683 10.1733 7.9935 10.1733C7.72016 10.1733 7.4935 9.94665 7.4935 9.67331V5.54665L6.34683 6.69331C6.1535 6.88665 5.8335 6.88665 5.64016 6.69331C5.44683 6.49998 5.4535 6.18665 5.64683 5.98665ZM12.1602 11.48C10.8202 11.9266 9.4135 12.1533 8.00016 12.1533C6.58683 12.1533 5.18016 11.9266 3.84016 11.48C3.58016 11.3933 3.44016 11.1066 3.52683 10.8466C3.6135 10.5866 3.90016 10.44 4.16016 10.5333C6.64016 11.36 9.36683 11.36 11.8468 10.5333C12.1068 10.4466 12.3935 10.5866 12.4802 10.8466C12.5602 11.1133 12.4202 11.3933 12.1602 11.48Z" fill="white"/>
</svg>
