<svg width="20" height="20" viewBox="0 0 20 20" fill="none" xmlns="http://www.w3.org/2000/svg">
<path d="M14.1665 18.9583H5.83317C2.9665 18.9583 1.0415 17.0333 1.0415 14.1666V9.99998C1.0415 7.43331 2.62484 5.57499 5.08317 5.26665C5.3165 5.23332 5.57484 5.20831 5.83317 5.20831H14.1665C14.3665 5.20831 14.6248 5.21664 14.8915 5.25831C17.3498 5.54164 18.9582 7.40831 18.9582 9.99998V14.1666C18.9582 17.0333 17.0332 18.9583 14.1665 18.9583ZM5.83317 6.45831C5.63317 6.45831 5.4415 6.47497 5.24984 6.49997C3.4165 6.7333 2.2915 8.06665 2.2915 9.99998V14.1666C2.2915 16.3166 3.68317 17.7083 5.83317 17.7083H14.1665C16.3165 17.7083 17.7082 16.3166 17.7082 14.1666V9.99998C17.7082 8.04998 16.5665 6.70832 14.7165 6.49165C14.5165 6.45832 14.3415 6.45831 14.1665 6.45831H5.83317Z" fill="#FF5C1E"/>
<path d="M5.15854 6.50835C4.95854 6.50835 4.7752 6.41669 4.6502 6.25002C4.50854 6.05835 4.49187 5.80835 4.6002 5.60002C4.74187 5.31669 4.94187 5.04169 5.2002 4.79169L7.90854 2.07501C9.29187 0.700012 11.5419 0.700012 12.9252 2.07501L14.3835 3.55003C15.0002 4.15836 15.3752 4.97503 15.4169 5.8417C15.4252 6.03336 15.3502 6.21667 15.2085 6.34167C15.0669 6.46667 14.8752 6.52503 14.6919 6.49169C14.5252 6.46669 14.3502 6.45835 14.1669 6.45835H5.83354C5.63354 6.45835 5.44187 6.47501 5.2502 6.50001C5.2252 6.50834 5.19187 6.50835 5.15854 6.50835ZM6.5502 5.20835H14.0169C13.9085 4.92502 13.7335 4.66669 13.5002 4.43336L12.0335 2.95003C11.1419 2.06669 9.68354 2.06669 8.78354 2.95003L6.5502 5.20835Z" fill="#FF5C1E"/>
<path d="M18.3332 14.375H15.8332C14.5665 14.375 13.5415 13.35 13.5415 12.0834C13.5415 10.8167 14.5665 9.79169 15.8332 9.79169H18.3332C18.6748 9.79169 18.9582 10.075 18.9582 10.4167C18.9582 10.7584 18.6748 11.0417 18.3332 11.0417H15.8332C15.2582 11.0417 14.7915 11.5084 14.7915 12.0834C14.7915 12.6584 15.2582 13.125 15.8332 13.125H18.3332C18.6748 13.125 18.9582 13.4084 18.9582 13.75C18.9582 14.0917 18.6748 14.375 18.3332 14.375Z" fill="#FF5C1E"/>
</svg>
