<svg width="87" height="49" viewBox="0 0 87 49" fill="none" xmlns="http://www.w3.org/2000/svg">
<path d="M75.5226 15.6792C80.0998 9.04562 75.3513 0 67.2918 0L15.438 0C7.15376 0 0.438034 6.71573 0.438034 15V33.2603C0.438034 41.5445 7.15376 48.2603 15.438 48.2603H34.6685C46.1729 48.2603 56.9427 42.6067 63.4763 33.1376L75.5226 15.6792Z" fill="url(#paint0_linear_429_3563)"/>
<path d="M28.9372 8.29736C24.2635 8.29736 20.4705 12.0905 20.4705 16.7641C20.4705 21.4377 24.2635 25.2308 28.9372 25.2308C33.6108 25.2308 37.4039 21.4377 37.4039 16.7641C37.4039 12.0905 33.6108 8.29736 28.9372 8.29736ZM33.3822 17.0435C33.3822 17.3906 33.0943 17.6785 32.7472 17.6785C32.4001 17.6785 32.1122 17.3906 32.1122 17.0435V14.4865L25.5759 21.0228C25.4489 21.1498 25.288 21.2091 25.1272 21.2091C24.9663 21.2091 24.8054 21.1498 24.6784 21.0228C24.4329 20.7773 24.4329 20.3709 24.6784 20.1254L31.2147 13.5891H28.6578C28.3106 13.5891 28.0228 13.3012 28.0228 12.9541C28.0228 12.6069 28.3106 12.3191 28.6578 12.3191H32.7472C33.0943 12.3191 33.3822 12.6069 33.3822 12.9541V17.0435Z" fill="#A4A8A8"/>
<path d="M12.4372 39.4802L10.7692 33.7202H11.5132L12.7932 38.2762L14.0692 33.7242L14.8172 33.7202L16.0972 38.2762L17.3732 33.7202H18.1212L16.4532 39.4802H15.7412L14.4452 34.9642L13.1492 39.4802H12.4372ZM18.7267 34.3962V33.6602H19.4387V34.3962H18.7267ZM18.7267 39.4802V35.1602H19.4387V39.4802H18.7267ZM23.0509 39.4802C22.7949 39.5308 22.5415 39.5508 22.2909 39.5402C22.0429 39.5322 21.8215 39.4828 21.6269 39.3922C21.4322 39.2988 21.2842 39.1548 21.1829 38.9602C21.0975 38.7895 21.0509 38.6175 21.0429 38.4442C21.0375 38.2682 21.0349 38.0695 21.0349 37.8482V33.9602H21.7469V37.8162C21.7469 37.9922 21.7482 38.1428 21.7509 38.2682C21.7562 38.3935 21.7842 38.5015 21.8349 38.5922C21.9309 38.7628 22.0829 38.8628 22.2909 38.8922C22.5015 38.9215 22.7549 38.9135 23.0509 38.8682V39.4802ZM20.1589 35.7482V35.1602H23.0509V35.7482H20.1589ZM27.0039 39.4802V37.3162C27.0039 37.1108 26.9853 36.9135 26.9479 36.7242C26.9133 36.5348 26.8506 36.3655 26.7599 36.2162C26.6719 36.0642 26.5519 35.9442 26.3999 35.8562C26.2506 35.7682 26.0613 35.7242 25.8319 35.7242C25.6533 35.7242 25.4906 35.7548 25.3439 35.8162C25.1999 35.8748 25.0759 35.9655 24.9719 36.0882C24.8679 36.2108 24.7866 36.3655 24.7279 36.5522C24.6719 36.7362 24.6439 36.9535 24.6439 37.2042L24.1759 37.0602C24.1759 36.6415 24.2506 36.2828 24.3999 35.9842C24.5519 35.6828 24.7639 35.4522 25.0359 35.2922C25.3106 35.1295 25.6333 35.0482 26.0039 35.0482C26.2839 35.0482 26.5226 35.0922 26.7199 35.1802C26.9173 35.2682 27.0813 35.3855 27.2119 35.5322C27.3426 35.6762 27.4453 35.8388 27.5199 36.0202C27.5946 36.1988 27.6466 36.3815 27.6759 36.5682C27.7079 36.7522 27.7239 36.9268 27.7239 37.0922V39.4802H27.0039ZM23.9239 39.4802V33.7202H24.5639V36.9002H24.6439V39.4802H23.9239ZM30.4599 39.6002C30.0572 39.6002 29.7119 39.5002 29.4239 39.3002C29.1359 39.0975 28.9132 38.8242 28.7559 38.4802C28.6012 38.1362 28.5239 37.7482 28.5239 37.3162C28.5239 36.8842 28.6012 36.4962 28.7559 36.1522C28.9132 35.8082 29.1359 35.5375 29.4239 35.3402C29.7119 35.1402 30.0559 35.0402 30.4559 35.0402C30.8639 35.0402 31.2065 35.1388 31.4839 35.3362C31.7612 35.5335 31.9705 35.8042 32.1119 36.1482C32.2559 36.4922 32.3279 36.8815 32.3279 37.3162C32.3279 37.7455 32.2559 38.1335 32.1119 38.4802C31.9705 38.8242 31.7612 39.0975 31.4839 39.3002C31.2065 39.5002 30.8652 39.6002 30.4599 39.6002ZM30.5479 38.9482C30.8385 38.9482 31.0772 38.8788 31.2639 38.7402C31.4505 38.5988 31.5879 38.4055 31.6759 38.1602C31.7665 37.9122 31.8119 37.6308 31.8119 37.3162C31.8119 36.9962 31.7665 36.7148 31.6759 36.4722C31.5879 36.2268 31.4519 36.0362 31.2679 35.9002C31.0839 35.7615 30.8505 35.6922 30.5679 35.6922C30.2745 35.6922 30.0319 35.7642 29.8399 35.9082C29.6505 36.0522 29.5092 36.2468 29.4159 36.4922C29.3252 36.7375 29.2799 37.0122 29.2799 37.3162C29.2799 37.6228 29.3265 37.9002 29.4199 38.1482C29.5132 38.3935 29.6532 38.5882 29.8399 38.7322C30.0292 38.8762 30.2652 38.9482 30.5479 38.9482ZM31.8119 39.4802V36.3002H31.7319V33.7202H32.4479V39.4802H31.8119ZM33.5685 39.4802V35.1602H34.2045V36.2042L34.1005 36.0682C34.1512 35.9348 34.2165 35.8122 34.2965 35.7002C34.3792 35.5882 34.4712 35.4962 34.5725 35.4242C34.6845 35.3335 34.8112 35.2642 34.9525 35.2162C35.0939 35.1682 35.2379 35.1402 35.3845 35.1322C35.5312 35.1215 35.6685 35.1308 35.7965 35.1602V35.8282C35.6472 35.7882 35.4832 35.7775 35.3045 35.7962C35.1259 35.8148 34.9605 35.8802 34.8085 35.9922C34.6699 36.0908 34.5619 36.2108 34.4845 36.3522C34.4099 36.4935 34.3579 36.6468 34.3285 36.8122C34.2992 36.9748 34.2845 37.1415 34.2845 37.3122V39.4802H33.5685ZM37.6403 39.6002C37.3176 39.6002 37.047 39.5415 36.8283 39.4242C36.6123 39.3042 36.4483 39.1468 36.3363 38.9522C36.227 38.7575 36.1723 38.5442 36.1723 38.3122C36.1723 38.0855 36.215 37.8895 36.3003 37.7242C36.3883 37.5562 36.511 37.4175 36.6683 37.3082C36.8256 37.1962 37.0136 37.1082 37.2323 37.0442C37.4376 36.9882 37.667 36.9402 37.9203 36.9002C38.1763 36.8575 38.435 36.8188 38.6963 36.7842C38.9576 36.7495 39.2016 36.7162 39.4283 36.6842L39.1723 36.8322C39.1803 36.4482 39.103 36.1642 38.9403 35.9802C38.7803 35.7962 38.503 35.7042 38.1083 35.7042C37.847 35.7042 37.6176 35.7642 37.4203 35.8842C37.2256 36.0015 37.0883 36.1935 37.0083 36.4602L36.3323 36.2562C36.4363 35.8775 36.6376 35.5802 36.9363 35.3642C37.235 35.1482 37.6283 35.0402 38.1163 35.0402C38.5083 35.0402 38.8443 35.1108 39.1243 35.2522C39.407 35.3908 39.6096 35.6015 39.7323 35.8842C39.7936 36.0175 39.8323 36.1628 39.8483 36.3202C39.8643 36.4748 39.8723 36.6375 39.8723 36.8082V39.4802H39.2403V38.4442L39.3883 38.5402C39.2256 38.8895 38.9976 39.1535 38.7043 39.3322C38.4136 39.5108 38.059 39.6002 37.6403 39.6002ZM37.7483 39.0042C38.0043 39.0042 38.2256 38.9588 38.4123 38.8682C38.6016 38.7748 38.7536 38.6535 38.8683 38.5042C38.983 38.3522 39.0576 38.1868 39.0923 38.0082C39.1323 37.8748 39.1536 37.7268 39.1563 37.5642C39.1616 37.3988 39.1643 37.2722 39.1643 37.1842L39.4123 37.2922C39.1803 37.3242 38.9523 37.3548 38.7283 37.3842C38.5043 37.4135 38.2923 37.4455 38.0923 37.4802C37.8923 37.5122 37.7123 37.5508 37.5523 37.5962C37.435 37.6335 37.3243 37.6815 37.2203 37.7402C37.119 37.7988 37.0363 37.8748 36.9723 37.9682C36.911 38.0588 36.8803 38.1722 36.8803 38.3082C36.8803 38.4255 36.9096 38.5375 36.9683 38.6442C37.0296 38.7508 37.123 38.8375 37.2483 38.9042C37.3763 38.9708 37.543 39.0042 37.7483 39.0042ZM41.676 39.4802L40.356 35.1562L41.064 35.1602L42.028 38.3202L43 35.1602H43.628L44.596 38.3202L45.564 35.1602H46.268L44.948 39.4802H44.356L43.312 36.1962L42.268 39.4802H41.676Z" fill="#A4A8A8"/>
<defs>
<linearGradient id="paint0_linear_429_3563" x1="51.5431" y1="8.12804" x2="46.9711" y2="48.2603" gradientUnits="userSpaceOnUse">
<stop stop-color="white"/>
<stop offset="1" stop-color="#DFDFDF"/>
</linearGradient>
</defs>
</svg>
