<svg width="22" height="21" viewBox="0 0 22 21" fill="none" xmlns="http://www.w3.org/2000/svg">
<path d="M10.9372 2.29736C6.26355 2.29736 2.47046 6.09045 2.47046 10.7641C2.47046 15.4377 6.26355 19.2308 10.9372 19.2308C15.6108 19.2308 19.4039 15.4377 19.4039 10.7641C19.4039 6.09045 15.6108 2.29736 10.9372 2.29736ZM15.3822 11.0435C15.3822 11.3906 15.0943 11.6785 14.7472 11.6785C14.4001 11.6785 14.1122 11.3906 14.1122 11.0435V8.48653L7.57589 15.0228C7.44889 15.1498 7.28802 15.2091 7.12715 15.2091C6.96628 15.2091 6.80542 15.1498 6.67842 15.0228C6.43288 14.7773 6.43288 14.3709 6.67842 14.1254L13.2147 7.58906H10.6578C10.3106 7.58906 10.0228 7.30119 10.0228 6.95406C10.0228 6.60692 10.3106 6.31905 10.6578 6.31905H14.7472C15.0943 6.31905 15.3822 6.60692 15.3822 6.95406V11.0435Z" fill="white"/>
</svg>
